# xmcd
#
# Track frame offsets:
# 150
# 18187
# 38687
# 57175
# 76750
# 97662
# 116437
# 135212
# 157062
# 178150
# 199087
# 218737
#
# Disc length: 3206 seconds
#
#
# Revision: 6
# Processed by: cddbd v1.5.2PL0 Copyright (c) Steve Scherf et al.
# Submitted via: FreeRIP 2.944 
#
DISCID=8b0c840c
DTITLE=劉德華 - 在乎你
DYEAR=1996
DGENRE=Pop
TTITLE0=倒轉地球
TTITLE1=一個人睡
TTITLE2=半生愛的女人
TTITLE3=潮水
TTITLE4=推不開
TTITLE5=另一半
TTITLE6=同床
TTITLE7=寂寞(但你不知)
TTITLE8=不能溶化的冰
TTITLE9=絕對在乎您
TTITLE10=擁抱你
TTITLE11=灑
EXTD=
EXTT0=
EXTT1=
EXTT2=
EXTT3=
EXTT4=
EXTT5=
EXTT6=
EXTT7=
EXTT8=
EXTT9=
EXTT10=
EXTT11=
PLAYORDER=
